<svg xmlns="http://www.w3.org/2000/svg" width="281.78" height="41.962" viewBox="0 0 281.78 41.962">
  <g id="FtXBry.tif" transform="translate(-138.218 -134.391)">
    <g id="Group_289" data-name="Group 289" transform="translate(138.218 134.391)">
      <g id="Group_428" data-name="Group 428">
        <path id="Path_61" data-name="Path 61" d="M532.4,164.727c-.377.913-.708,1.85-1.141,2.736a8.046,8.046,0,0,1-4.594,3.774,15.275,15.275,0,0,1-7.485.717,20.211,20.211,0,0,1-6.3-1.718,1.355,1.355,0,0,1-.225-.176c.427-1.645.845-3.3,1.307-4.944a.624.624,0,0,1,.563-.222,16.374,16.374,0,0,0,6.567,1.626,6.625,6.625,0,0,0,3.156-.707c1.615-.839,1.516-3.061-.2-4.05-1.528-.882-3.216-1.487-4.827-2.227-2.246-1.032-4.39-2.2-5.555-4.542a8.763,8.763,0,0,1,1.157-9.126,8.291,8.291,0,0,1,5.051-2.538,20.046,20.046,0,0,1,9.254.642c2.36.772,2.349.785,1.771,3.19-.248,1.032-.468,2.071-.705,3.127a16.456,16.456,0,0,0-7.033-1.616,6.547,6.547,0,0,0-1.994.411,1.8,1.8,0,0,0-1.19,1.636,1.835,1.835,0,0,0,.915,1.955c1.5.775,3.05,1.469,4.588,2.177,2.571,1.185,5.07,2.457,6.337,5.209.244.528.39,1.1.581,1.654Z" transform="translate(-250.621 -136.996)" fill="#8F354F"/>
        <path id="Path_62" data-name="Path 62" d="M338.446,179.217q-1.423-1.171-2.848-2.342c-.084-.069-.187-.115-.269-.185-.471-.4-1.26-.768-1.318-1.226s.584-1.037.94-1.549a14.046,14.046,0,0,0,2.434-5.5,13.49,13.49,0,0,0,.213-2.385q.024-10.54.009-21.082v-1.021h7.05v.878c0,6.944.049,13.888-.022,20.831a17.14,17.14,0,0,1-2.016,8.54,45.265,45.265,0,0,1-2.757,3.873c-.29.4-.607.776-.911,1.164Z" transform="translate(-196.991 -137.255)" fill="#8F354F"/>
        <path id="Path_63" data-name="Path 63" d="M446.819,143.164a13.235,13.235,0,0,1,9.445,3.1,12.907,12.907,0,0,1,4.319,6.952,15.992,15.992,0,0,1-1.127,11.678,12.631,12.631,0,0,1-9.282,6.89,15.643,15.643,0,0,1-10.667-1.358,12.848,12.848,0,0,1-6.685-9.284,18.17,18.17,0,0,1-.333-4.689c.327-4.871,2.3-8.873,6.646-11.447A13.175,13.175,0,0,1,446.819,143.164Zm-7.363,14.817a25.6,25.6,0,0,0,.4,2.775c.877,3.662,3.7,6.076,7.721,5.69a6.823,6.823,0,0,0,5.956-4.922,13.01,13.01,0,0,0,.387-6.279,7.8,7.8,0,0,0-3.314-5.464,6.83,6.83,0,0,0-5.755-.837,6.346,6.346,0,0,0-3.34,2.1C439.93,152.941,439.557,155.2,439.457,157.981Z" transform="translate(-226.544 -137.015)" fill="#8F354F"/>
        <path id="Path_64" data-name="Path 64" d="M493.769,157.214a8.728,8.728,0,0,1,4.331,2.058,5.1,5.1,0,0,1,1.753,3.179c.3,2.533-.055,4.934-2.211,6.675a12.109,12.109,0,0,1-5.525,2.367c-3.344.621-6.723.232-10.085.332-.89.027-1.782,0-2.727,0v-27.96h1.922c3.077,0,6.154-.015,9.231,0a10.2,10.2,0,0,1,6.368,2.09,5.372,5.372,0,0,1,2.088,3.951c.3,3.619-1.8,6.035-4.856,7.069C493.962,157.019,493.888,157.117,493.769,157.214Zm-7.6,3.042v6.367a13.13,13.13,0,0,0,4.834-.477,2.863,2.863,0,0,0,.1-5.426C489.477,160.028,487.85,160.43,486.174,160.256Zm-.008-5.342c1.55-.043,3.036.225,4.419-.628a2.674,2.674,0,0,0,1.4-2.675A2.276,2.276,0,0,0,490.1,149.4c-1.281-.231-2.587-.318-3.936-.473Z" transform="translate(-240.609 -137.235)" fill="#8F354F"/>
        <path id="Path_65" data-name="Path 65" d="M381.755,171.807h-7.269c-.533-1.589-1.081-3.155-1.576-4.738a.71.71,0,0,0-.8-.605q-4.655.027-9.309,0c-.518,0-.7.184-.837.666-.4,1.386-.859,2.757-1.335,4.119-.081.23-.354.555-.543.558-2.26.038-4.52.025-6.934.025,3.5-9.382,6.962-18.656,10.435-27.958,2.449,0,4.88-.021,7.309.031.258.006.628.388.74.675.838,2.157,1.62,4.337,2.43,6.5q2.816,7.539,5.639,15.075C380.4,168.019,381.06,169.892,381.755,171.807Zm-10.876-11.052c-1.143-3.765-2.255-7.426-3.409-11.23l-3.442,11.23Z" transform="translate(-202.738 -137.236)" fill="#8F354F"/>
        <path id="Path_67" data-name="Path 67" d="M418.52,144.727l-1.041,5.155c-.944-.265-1.845-.537-2.757-.771a12.372,12.372,0,0,0-8,.449,7.045,7.045,0,0,0-4.246,5.128,11.949,11.949,0,0,0,.208,6.49,7.4,7.4,0,0,0,6.014,5.073,15.838,15.838,0,0,0,8.8-.993c.341,1.752.679,3.488,1.018,5.232a20.2,20.2,0,0,1-10.077,1.591,14.954,14.954,0,0,1-7.764-2.605,12.439,12.439,0,0,1-5.111-7.948,15.732,15.732,0,0,1-.48-3.49,16.994,16.994,0,0,1,1.521-7.5,12.357,12.357,0,0,1,5.252-5.527,15.719,15.719,0,0,1,7.323-1.878,21.1,21.1,0,0,1,8.375,1.176c.126.051.26.084.384.139C418.137,144.536,418.329,144.636,418.52,144.727Z" transform="translate(-215.326 -137.013)" fill="#8F354F"/>
      </g>
      <g id="Group_429" data-name="Group 429">
        <path id="Path_66" data-name="Path 66" d="M165.815,157.017l3.239-11.757c.932-3.383,1.879-6.762,2.784-10.154.141-.531.354-.731.906-.706.918.042,1.841.012,2.886.012-.434,1.544-.836,3.008-1.255,4.467q-3.335,11.6-6.662,23.212c-.189.665-.434.99-1.176.91-.8-.087-1.829.229-2.36-.165s-.576-1.439-.8-2.209q-3.115-10.537-6.22-21.078c-.054-.183-.122-.363-.251-.745-.57,1.917-1.088,3.648-1.6,5.381-1.782,6.037-3.571,12.071-5.327,18.115-.155.533-.363.731-.91.7-.862-.055-1.959.265-2.528-.153s-.608-1.54-.845-2.363q-3.633-12.6-7.253-25.214c-.068-.235-.125-.474-.22-.842,1.149,0,2.23-.036,3.3.035.181.012.4.46.484.742,1.138,4.079,2.254,8.163,3.377,12.245q1.253,4.552,2.512,9.1c.05.183.121.36.246.728.734-2.478,1.419-4.777,2.1-7.078,1.47-5,2.947-9.99,4.391-14.993.178-.616.445-.857,1.1-.807a16.789,16.789,0,0,0,2.432,0c.617-.042.859.191,1.028.771q2.563,8.826,5.18,17.637c.414,1.405.836,2.809,1.254,4.214Z" transform="translate(-138.218 -134.391)"/>
        <path id="Path_68" data-name="Path 68" d="M317.2,156.888V134.468h3.388v28.521c-.976,0-1.95.049-2.912-.031-.276-.022-.578-.379-.772-.651q-7.341-10.292-14.658-20.6a3.865,3.865,0,0,0-.852-.928v22.177h-3.435V134.423c1.008,0,1.986-.05,2.953.031.277.024.579.385.774.659q7.388,10.362,14.754,20.739C316.646,156.136,316.855,156.415,317.2,156.888Z" transform="translate(-186.171 -134.396)"/>
        <path id="Path_69" data-name="Path 69" d="M229.73,140.792v22.124h-3.423V134.425c1,0,2-.043,2.992.029.252.018.526.365.707.62q6.754,9.471,13.488,18.956l2.029,2.849v-22.4h3.45v28.509c-1.031,0-2.053.036-3.069-.029-.223-.014-.458-.364-.627-.6q-7.5-10.53-14.993-21.068c-.129-.181-.262-.358-.395-.537Z" transform="translate(-164.661 -134.397)"/>
        <path id="Path_70" data-name="Path 70" d="M267.985,134.493h15.539v3H271.551v9.354h11.462V149.9H271.557v10.04h12.1v3.015H267.985Z" transform="translate(-177.173 -134.422)"/>
        <path id="Path_71" data-name="Path 71" d="M225.979,184.857v-2.036h72.684v2.036Z" transform="translate(-164.563 -148.929)"/>
        <path id="Path_72" data-name="Path 72" d="M208.889,169.515l-2.568-2.042c.46-.581.9-1.115,1.316-1.666a13.959,13.959,0,0,0,2.843-8.652q.008-10.791,0-21.581v-1.062h3.484a3.4,3.4,0,0,1,.066.473c-.006,7.584.018,15.168-.037,22.752A16.3,16.3,0,0,1,208.889,169.515Z" transform="translate(-158.662 -134.427)"/>
        <path id="Path_73" data-name="Path 73" d="M197.461,134.495h3.458v28.471h-3.458Z" transform="translate(-156.002 -134.422)"/>
        <path id="Path_74" data-name="Path 74" d="M139.78,184.832V182.82h40.961v2.012Z" transform="translate(-138.687 -148.929)"/>
      </g>
    </g>
  </g>
</svg>
